<mxfile host="app.diagrams.net" agent="Mozilla/5.0 (Windows NT 10.0; Win64; x64) AppleWebKit/537.36 (KHTML, like Gecko) Chrome/129.0.0.0 Safari/537.36" version="24.7.16">
  <diagram name="Page-1" id="6kBh8UTkucDPiVtBJUrI">
    <mxGraphModel dx="2284" dy="744" grid="1" gridSize="10" guides="1" tooltips="1" connect="1" arrows="1" fold="1" page="1" pageScale="1" pageWidth="850" pageHeight="1100" math="0" shadow="0">
      <root>
        <mxCell id="0" />
        <mxCell id="1" parent="0" />
        <mxCell id="BEFxQ03yj8iB7JwDrn9P-15" value="" style="group" parent="1" vertex="1" connectable="0">
          <mxGeometry x="-220" y="150" width="180" height="120" as="geometry" />
        </mxCell>
        <mxCell id="BEFxQ03yj8iB7JwDrn9P-12" value="Celular" style="verticalAlign=top;align=left;spacingTop=8;spacingLeft=2;spacingRight=12;shape=cube;size=10;direction=south;fontStyle=4;html=1;whiteSpace=wrap;" parent="BEFxQ03yj8iB7JwDrn9P-15" vertex="1">
          <mxGeometry width="180" height="120" as="geometry" />
        </mxCell>
        <mxCell id="BEFxQ03yj8iB7JwDrn9P-13" value="Aplicativo" style="shape=module;align=left;spacingLeft=20;align=center;verticalAlign=top;whiteSpace=wrap;html=1;container=1;" parent="BEFxQ03yj8iB7JwDrn9P-15" vertex="1">
          <mxGeometry x="35" y="35" width="100" height="50" as="geometry" />
        </mxCell>
        <mxCell id="BEFxQ03yj8iB7JwDrn9P-17" style="rounded=0;orthogonalLoop=1;jettySize=auto;html=1;entryX=0;entryY=0;entryDx=65;entryDy=180;entryPerimeter=0;endArrow=none;endFill=0;" parent="1" source="BEFxQ03yj8iB7JwDrn9P-13" target="BEFxQ03yj8iB7JwDrn9P-10" edge="1">
          <mxGeometry relative="1" as="geometry" />
        </mxCell>
        <mxCell id="BEFxQ03yj8iB7JwDrn9P-19" value="HTTPS" style="edgeLabel;html=1;align=center;verticalAlign=middle;resizable=0;points=[];" parent="BEFxQ03yj8iB7JwDrn9P-17" vertex="1" connectable="0">
          <mxGeometry x="0.0041" relative="1" as="geometry">
            <mxPoint as="offset" />
          </mxGeometry>
        </mxCell>
        <mxCell id="BEFxQ03yj8iB7JwDrn9P-20" value="" style="group" parent="1" vertex="1" connectable="0">
          <mxGeometry x="120" y="60" width="630" height="570" as="geometry" />
        </mxCell>
        <mxCell id="BEFxQ03yj8iB7JwDrn9P-18" value="&lt;div&gt;&lt;br&gt;&lt;/div&gt;&lt;div&gt;&lt;br&gt;&lt;/div&gt;" style="html=1;whiteSpace=wrap;fillColor=#dae8fc;strokeColor=#6c8ebf;" parent="BEFxQ03yj8iB7JwDrn9P-20" vertex="1">
          <mxGeometry width="630" height="570" as="geometry" />
        </mxCell>
        <mxCell id="BEFxQ03yj8iB7JwDrn9P-5" value="" style="group" parent="BEFxQ03yj8iB7JwDrn9P-20" vertex="1" connectable="0">
          <mxGeometry x="370" y="90" width="180" height="120" as="geometry" />
        </mxCell>
        <mxCell id="BEFxQ03yj8iB7JwDrn9P-2" value="&lt;div&gt;&lt;div style=&quot;font-size: 15px;&quot;&gt;Aplicativo&lt;/div&gt;&lt;/div&gt;" style="verticalAlign=top;align=left;spacingTop=8;spacingLeft=2;spacingRight=12;shape=cube;size=10;direction=south;fontStyle=4;html=1;whiteSpace=wrap;" parent="BEFxQ03yj8iB7JwDrn9P-5" vertex="1">
          <mxGeometry width="180" height="120" as="geometry" />
        </mxCell>
        <mxCell id="BEFxQ03yj8iB7JwDrn9P-4" value="Dart" style="shape=module;align=left;spacingLeft=20;align=center;verticalAlign=top;whiteSpace=wrap;html=1;" parent="BEFxQ03yj8iB7JwDrn9P-5" vertex="1">
          <mxGeometry x="20" y="40" width="120" height="60" as="geometry" />
        </mxCell>
        <mxCell id="BEFxQ03yj8iB7JwDrn9P-7" value="" style="group" parent="BEFxQ03yj8iB7JwDrn9P-20" vertex="1" connectable="0">
          <mxGeometry x="370" y="370" width="180" height="120" as="geometry" />
        </mxCell>
        <mxCell id="BEFxQ03yj8iB7JwDrn9P-1" value="Banco de Dados" style="verticalAlign=top;align=left;spacingTop=8;spacingLeft=2;spacingRight=12;shape=cube;size=10;direction=south;fontStyle=4;html=1;whiteSpace=wrap;" parent="BEFxQ03yj8iB7JwDrn9P-7" vertex="1">
          <mxGeometry width="180" height="120" as="geometry" />
        </mxCell>
        <mxCell id="BEFxQ03yj8iB7JwDrn9P-6" value="MySQL" style="shape=module;align=left;spacingLeft=20;align=center;verticalAlign=top;whiteSpace=wrap;html=1;" parent="BEFxQ03yj8iB7JwDrn9P-7" vertex="1">
          <mxGeometry x="20" y="40" width="120" height="60" as="geometry" />
        </mxCell>
        <mxCell id="BEFxQ03yj8iB7JwDrn9P-8" style="edgeStyle=orthogonalEdgeStyle;rounded=0;orthogonalLoop=1;jettySize=auto;html=1;endArrow=none;endFill=0;" parent="BEFxQ03yj8iB7JwDrn9P-20" source="BEFxQ03yj8iB7JwDrn9P-2" target="BEFxQ03yj8iB7JwDrn9P-1" edge="1">
          <mxGeometry relative="1" as="geometry" />
        </mxCell>
        <mxCell id="BEFxQ03yj8iB7JwDrn9P-9" value="Local/ API" style="edgeLabel;html=1;align=center;verticalAlign=middle;resizable=0;points=[];" parent="BEFxQ03yj8iB7JwDrn9P-8" vertex="1" connectable="0">
          <mxGeometry x="-0.0235" relative="1" as="geometry">
            <mxPoint as="offset" />
          </mxGeometry>
        </mxCell>
        <mxCell id="BEFxQ03yj8iB7JwDrn9P-10" value="Firewall" style="verticalAlign=top;align=left;spacingTop=8;spacingLeft=2;spacingRight=12;shape=cube;size=10;direction=south;fontStyle=4;html=1;whiteSpace=wrap;" parent="BEFxQ03yj8iB7JwDrn9P-20" vertex="1">
          <mxGeometry x="70" y="90" width="180" height="120" as="geometry" />
        </mxCell>
        <mxCell id="BEFxQ03yj8iB7JwDrn9P-11" style="edgeStyle=orthogonalEdgeStyle;rounded=0;orthogonalLoop=1;jettySize=auto;html=1;endArrow=none;endFill=0;" parent="BEFxQ03yj8iB7JwDrn9P-20" source="BEFxQ03yj8iB7JwDrn9P-2" target="BEFxQ03yj8iB7JwDrn9P-10" edge="1">
          <mxGeometry relative="1" as="geometry" />
        </mxCell>
      </root>
    </mxGraphModel>
  </diagram>
</mxfile>
